<svg width="48" height="48" viewBox="0 0 48 48" fill="none" xmlns="http://www.w3.org/2000/svg">
<rect width="48" height="48" fill="none"/>
<g clip-path="url(#clip0_0_1)">
<circle cx="24" cy="24" r="24" fill="white"/>
<path d="M24.2278 42C29.1494 42 34.7089 39.75 36.9873 36.6L33.7975 34.8L30.6076 33C29.2405 33.9 26.6613 34.8 24.2278 34.8C19.4977 34.8 15.4876 31.641 14.0658 27.393H7.95949V32.073C10.9489 37.959 17.1008 42 24.2278 42Z" fill="#4285F4"/>
<path d="M14.0658 27.393C13.7013 26.322 13.5008 25.179 13.5008 24C13.5008 22.821 13.7013 21.678 14.0658 20.607V15.927H7.95949C6.71089 18.357 6 21.093 6 24C6 26.907 6.71089 29.643 7.95038 32.073L14.0658 27.393Z" fill="#34A853"/>
<path d="M24.2278 13.2C26.8982 13.2 30.1519 14.1 31.519 15.927L36.4223 10.698C33.2689 7.782 29.1403 6 24.2278 6C17.1008 6 10.9489 10.041 7.95038 15.927L14.0567 20.607C15.4876 16.359 19.4977 13.2 24.2278 13.2Z" fill="#FABB05"/>
<path d="M34.7089 24.774C34.7089 27.411 32.8861 31.65 29.6962 33.45L35.1646 38.4C38.3544 35.7 42 29.625 42 24.774C42 17.736 39.2658 12.3 33.7975 8.7L29.6962 14.55C33.3418 16.8 34.7089 20.103 34.7089 24.774Z" fill="#E94235"/>
<path d="M41.2937 37.3424C41.4374 36.9167 41.2419 36.4538 40.8325 36.259C39.4172 35.5857 36.9239 34.3944 36.2238 33.7031C35.3796 32.8693 34.3066 32.2119 33.7975 31.2L32.0616 28.4574C31.7727 28.0009 31.1452 27.8953 30.7194 28.2316L27.5558 30.7309C27.2119 31.0025 27.1135 31.4785 27.3241 31.8603C28.5771 34.1328 29.897 36.3483 31.9747 38.4C34.0038 40.4038 36.4876 41.0174 38.8551 41.73C39.3355 41.8746 39.85 41.6193 40.0089 41.1487L40.6329 39.3L41.2937 37.3424Z" fill="#9400D3"/>
</g>
<defs>
<clipPath id="clip0_0_1">
<rect width="48" height="48" fill="white"/>
</clipPath>
</defs>
</svg>